<?xml version="1.0" encoding="UTF-8" standalone="yes"?>
<svg width="378" height="378" viewBox="0 0 378 378" version="1.2" baseProfile="tiny-ps" xmlns="http://www.w3.org/2000/svg">
  <title>BLUEONE AUDIT</title>
  <path d="M -0 189.003 L -0 378.005 189.250 377.753 L 378.500 377.500 378.753 188.750 L 379.005 0 189.503 0 L 0 0 -0 189.003 M 0.490 189.500 C 0.490 293.450, 0.607 335.827, 0.750 283.671 C 0.893 231.514, 0.893 146.464, 0.750 94.671 C 0.607 42.877, 0.490 85.550, 0.490 189.500 M 35.196 14.889 C 28.935 17.061, 24.455 20.972, 21.896 26.500 C 20.118 30.339, 20.043 36.823, 20.028 188 C 20.017 293.322, 20.353 346.732, 21.044 349.219 C 22.394 354.081, 26.106 358.390, 31.855 361.770 L 36.500 364.500 189 364.500 L 341.500 364.500 345.568 362.322 C 351 359.415, 356.748 352.894, 357.480 348.810 C 357.806 346.989, 357.944 273.911, 357.786 186.414 L 357.500 27.329 354.708 23.301 C 353.134 21.029, 349.646 18.014, 346.708 16.386 L 341.500 13.500 191 13.274 C 47.116 13.059, 40.267 13.130, 35.196 14.889 M 153 105.500 L 153 168 159.500 168 L 166 168 166 105.500 L 166 43 159.500 43 L 153 43 153 105.500 M 69 108.876 L 69 168 84.250 167.982 C 113.936 167.948, 123.497 165.690, 131.459 156.834 C 137.189 150.461, 139.485 143.781, 139.479 133.495 C 139.475 126.762, 139.030 124.581, 136.674 119.766 C 133.517 113.314, 128.507 108.673, 122.537 106.670 L 118.500 105.316 122.763 103.131 C 131.086 98.865, 135.991 87.840, 134.473 76.806 C 133.381 68.860, 128.329 60.085, 122.656 56.277 C 120.015 54.504, 116.200 52.546, 114.177 51.926 C 112.155 51.306, 101.162 50.563, 89.750 50.275 L 69 49.752 69 108.876 M 83 82.400 L 83 102 89.250 101.980 C 98.367 101.951, 108.949 100.214, 112.445 98.172 C 114.122 97.193, 116.544 94.841, 117.829 92.946 C 119.896 89.897, 120.127 88.557, 119.833 81.323 C 119.460 72.162, 117.889 69.030, 111.895 65.500 C 109.090 63.848, 106.283 63.439, 95.750 63.150 L 83 62.799 83 82.400 M 291.788 92.102 C 280.064 93.386, 269.590 101.242, 264.160 112.825 C 261.737 117.994, 261.502 119.570, 261.523 130.500 C 261.550 144.869, 263.516 151.021, 270.601 158.901 C 284.294 174.131, 310.763 174.551, 325.113 159.764 C 327.337 157.472, 329.761 154.430, 330.498 153.003 C 331.790 150.505, 331.674 150.304, 327.359 147.574 L 322.877 144.739 317.733 150.510 C 311.751 157.222, 306.496 159.950, 299.500 159.972 C 291.361 159.999, 286.963 158.277, 281.934 153.095 C 277.527 148.552, 276.252 145.680, 274.459 136.250 L 273.841 133 302.921 133 L 332 133 332 127.182 C 332 112.236, 323.567 98.716, 311.212 93.855 C 307.044 92.214, 298.119 91.409, 291.788 92.102 M 183.261 120.202 C 183.753 148.554, 184.134 150.987, 189.277 158.669 C 191.752 162.366, 194.074 164.284, 199.280 166.931 C 205.617 170.153, 206.693 170.379, 215.780 170.395 C 232.211 170.423, 241.922 165.262, 247.136 153.727 C 249.404 148.712, 249.512 147.397, 249.821 121.250 L 250.143 94 243.646 94 L 237.149 94 236.825 119.750 C 236.506 145.059, 236.457 145.577, 234 150 C 230.692 155.954, 225.731 158.408, 217 158.408 C 208.269 158.408, 203.308 155.954, 200 150 C 197.561 145.610, 197.488 144.878, 197 120 L 196.500 94.500 189.652 94.202 L 182.804 93.904 183.261 120.202 M 292 102.964 C 283.011 104.706, 275 112.946, 275 120.450 L 275 123 297 123 C 313.936 123, 318.999 122.712, 318.994 121.750 C 318.967 115.556, 313.580 107.409, 307.744 104.737 C 303.681 102.876, 296.580 102.076, 292 102.964 M 83 133.906 L 83 155 95.057 155 C 110.474 155, 114.970 153.883, 119.434 148.941 C 123.626 144.302, 125.404 138.290, 124.678 131.209 C 123.993 124.522, 121.555 120.337, 116.118 116.514 C 111.905 113.551, 111.587 113.494, 97.416 113.156 L 83 112.812 83 133.906 M 97.645 192.584 C 81.183 196.569, 64.882 210.278, 56.632 227.075 C 49.699 241.189, 48.490 246.795, 48.557 264.500 C 48.612 278.826, 48.765 279.944, 51.977 289.382 C 56.175 301.717, 62.468 311.487, 71.734 320.056 C 95.738 342.252, 128.756 341.424, 152 318.044 C 164.378 305.594, 170.645 292.202, 173.118 272.920 C 175.220 256.524, 171.125 236.286, 162.865 222.264 C 161.014 219.122, 156.115 213.127, 151.978 208.943 C 137.167 193.962, 117.015 187.895, 97.645 192.584 M 213.500 193.327 C 207.401 195.345, 204.882 196.865, 200.250 201.325 L 196 205.416 196 200.208 L 196 195 190 195 L 184 195 184 231.500 L 184 268 189.924 268 L 195.848 268 196.174 242.750 C 196.535 214.754, 196.665 214.135, 203.422 208.203 C 209.785 202.616, 220.311 201.353, 228.038 205.250 C 231.462 206.976, 233.074 208.660, 234.969 212.485 C 237.359 217.308, 237.451 218.286, 237.839 242.735 L 238.240 268 244.120 268 L 250 268 249.994 240.250 C 249.991 223.773, 249.558 210.948, 248.928 208.679 C 247.533 203.655, 241.579 197.158, 236.167 194.756 C 230.633 192.300, 218.851 191.557, 213.500 193.327 M 286.286 193.392 C 272.069 198.032, 263.297 208.815, 260.826 224.690 C 258.764 237.936, 263.650 253.838, 272.140 261.507 C 274.406 263.555, 278.789 266.415, 281.880 267.865 C 286.839 270.190, 288.734 270.499, 298 270.491 C 307.298 270.483, 309.161 270.174, 314.270 267.787 C 320.195 265.020, 329.338 256.662, 330.522 252.930 C 331.201 250.793, 330.348 249.836, 324.862 246.583 C 322.283 245.054, 322.160 245.103, 319.456 248.759 C 313.452 256.876, 307.007 260.360, 298 260.360 C 290.195 260.360, 284.706 257.887, 280.068 252.279 C 276.823 248.355, 274 240.698, 274 235.818 L 274 233 303.144 233 L 332.289 233 331.716 225.750 C 330.582 211.385, 324.688 201.675, 313.701 196.070 C 307.941 193.132, 305.797 192.596, 298.739 192.329 C 293.625 192.135, 288.901 192.539, 286.286 193.392 M 288.500 204.146 C 283.180 206.113, 278.842 210.143, 276.402 215.383 C 275.092 218.197, 274.015 221.063, 274.010 221.750 C 274.002 222.713, 279.165 223, 296.519 223 L 319.038 223 318.412 220.250 C 315.929 209.334, 309.483 203.960, 298.175 203.379 C 294.504 203.190, 290.150 203.535, 288.500 204.146 M 103.108 207.037 C 85.220 210.732, 70.149 226.366, 64.975 246.596 C 62.561 256.035, 62.352 271.029, 64.515 279.540 C 71.354 306.444, 94.677 324.389, 117.332 320.176 C 150.877 313.937, 169.188 270.780, 152.983 236.151 C 144.810 218.685, 130.768 208.068, 113.995 206.671 C 110.423 206.373, 105.524 206.538, 103.108 207.037 M 205.065 284.723 C 203.984 287.065, 199.884 296.436, 184.924 330.750 L 183.071 335 186.366 335 C 189.518 335, 189.816 334.653, 193.258 327 L 196.856 319 206.807 319 L 216.758 319 220.061 327 C 223.282 334.800, 223.450 335, 226.789 335 C 229.141 335, 230.050 334.608, 229.692 333.750 C 225.470 323.633, 207.573 283.298, 207.051 282.723 C 206.663 282.295, 205.769 283.195, 205.065 284.723 M 292 295.952 L 292 308.905 289.437 306.530 C 284.798 302.229, 276.572 302.363, 271.649 306.817 C 268.405 309.754, 266.677 314.334, 266.677 320 C 266.677 328.822, 271.244 335.205, 278.536 336.573 C 282.650 337.345, 288.697 335.458, 290.291 332.906 C 291.833 330.436, 293 330.477, 293 333 C 293 334.467, 293.667 335, 295.500 335 L 298 335 298 309 L 298 283 295 283 L 292 283 292 295.952 M 306 285 C 304.744 287.346, 306.238 291, 308.453 291 C 311.509 291, 313 289.688, 313 287 C 313 282.819, 307.941 281.374, 306 285 M 321 296.500 L 321 303 318 303 C 315.667 303, 315 303.444, 315 305 C 315 306.556, 315.667 307, 318 307 L 321 307 321 321 L 321 335 324 335 L 327 335 327 321 L 327 307 330 307 C 332.333 307, 333 306.556, 333 305 C 333 303.444, 332.333 303, 330 303 L 327 303 327 296.500 L 327 290 324 290 L 321 290 321 296.500 M 202.710 303.762 C 200.670 308.581, 199 312.856, 199 313.262 C 199 313.668, 202.583 314, 206.962 314 L 214.924 314 211.462 305.911 C 209.557 301.461, 207.644 297.186, 207.210 296.411 C 206.671 295.447, 205.245 297.777, 202.710 303.762 M 231 314.599 C 231 327.270, 232.217 331.602, 236.579 334.460 C 240.547 337.060, 247.379 337.509, 252.604 335.514 C 259.338 332.942, 260.950 328.849, 260.978 314.250 L 261 303 258.084 303 L 255.167 303 254.834 314.975 C 254.536 325.671, 254.269 327.181, 252.336 329.111 C 250.810 330.635, 248.941 331.273, 246 331.273 C 243.059 331.273, 241.190 330.635, 239.664 329.111 C 237.731 327.181, 237.464 325.671, 237.166 314.975 L 236.833 303 233.916 303 L 231 303 231 314.599 M 307 319 L 307 335 309.500 335 L 312 335 312 319 L 312 303 309.500 303 L 307 303 307 319 M 274.455 311.455 C 272.402 313.507, 272 314.878, 272 319.820 C 272 324.228, 272.511 326.380, 274.012 328.288 C 276.546 331.510, 281.042 332.568, 284.714 330.808 C 290.122 328.216, 291.488 316.048, 286.922 311.146 C 284.033 308.046, 277.707 308.202, 274.455 311.455" stroke="none" fill="#f8fafc" fill-rule="evenodd"/>
  <path d="M 35.196 14.889 C 28.935 17.061, 24.455 20.972, 21.896 26.500 C 20.118 30.339, 20.043 36.823, 20.028 188 C 20.017 293.322, 20.353 346.732, 21.044 349.219 C 22.394 354.081, 26.106 358.390, 31.855 361.770 L 36.500 364.500 189 364.500 L 341.500 364.500 345.568 362.322 C 351 359.415, 356.748 352.894, 357.480 348.810 C 357.806 346.989, 357.944 273.911, 357.786 186.414 L 357.500 27.329 354.708 23.301 C 353.134 21.029, 349.646 18.014, 346.708 16.386 L 341.500 13.500 191 13.274 C 47.116 13.059, 40.267 13.130, 35.196 14.889 M 153 105.500 L 153 168 159.500 168 L 166 168 166 105.500 L 166 43 159.500 43 L 153 43 153 105.500 M 69 108.876 L 69 168 84.250 167.982 C 113.936 167.948, 123.497 165.690, 131.459 156.834 C 137.189 150.461, 139.485 143.781, 139.479 133.495 C 139.475 126.762, 139.030 124.581, 136.674 119.766 C 133.517 113.314, 128.507 108.673, 122.537 106.670 L 118.500 105.316 122.763 103.131 C 131.086 98.865, 135.991 87.840, 134.473 76.806 C 133.381 68.860, 128.329 60.085, 122.656 56.277 C 120.015 54.504, 116.200 52.546, 114.177 51.926 C 112.155 51.306, 101.162 50.563, 89.750 50.275 L 69 49.752 69 108.876 M 83 82.400 L 83 102 89.250 101.980 C 98.367 101.951, 108.949 100.214, 112.445 98.172 C 114.122 97.193, 116.544 94.841, 117.829 92.946 C 119.896 89.897, 120.127 88.557, 119.833 81.323 C 119.460 72.162, 117.889 69.030, 111.895 65.500 C 109.090 63.848, 106.283 63.439, 95.750 63.150 L 83 62.799 83 82.400 M 291.788 92.102 C 280.064 93.386, 269.590 101.242, 264.160 112.825 C 261.737 117.994, 261.502 119.570, 261.523 130.500 C 261.550 144.869, 263.516 151.021, 270.601 158.901 C 284.294 174.131, 310.763 174.551, 325.113 159.764 C 327.337 157.472, 329.761 154.430, 330.498 153.003 C 331.790 150.505, 331.674 150.304, 327.359 147.574 L 322.877 144.739 317.733 150.510 C 311.751 157.222, 306.496 159.950, 299.500 159.972 C 291.361 159.999, 286.963 158.277, 281.934 153.095 C 277.527 148.552, 276.252 145.680, 274.459 136.250 L 273.841 133 302.921 133 L 332 133 332 127.182 C 332 112.236, 323.567 98.716, 311.212 93.855 C 307.044 92.214, 298.119 91.409, 291.788 92.102 M 183.261 120.202 C 183.753 148.554, 184.134 150.987, 189.277 158.669 C 191.752 162.366, 194.074 164.284, 199.280 166.931 C 205.617 170.153, 206.693 170.379, 215.780 170.395 C 232.211 170.423, 241.922 165.262, 247.136 153.727 C 249.404 148.712, 249.512 147.397, 249.821 121.250 L 250.143 94 243.646 94 L 237.149 94 236.825 119.750 C 236.506 145.059, 236.457 145.577, 234 150 C 230.692 155.954, 225.731 158.408, 217 158.408 C 208.269 158.408, 203.308 155.954, 200 150 C 197.561 145.610, 197.488 144.878, 197 120 L 196.500 94.500 189.652 94.202 L 182.804 93.904 183.261 120.202 M 292 102.964 C 283.011 104.706, 275 112.946, 275 120.450 L 275 123 297 123 C 313.936 123, 318.999 122.712, 318.994 121.750 C 318.967 115.556, 313.580 107.409, 307.744 104.737 C 303.681 102.876, 296.580 102.076, 292 102.964 M 83 133.906 L 83 155 95.057 155 C 110.474 155, 114.970 153.883, 119.434 148.941 C 123.626 144.302, 125.404 138.290, 124.678 131.209 C 123.993 124.522, 121.555 120.337, 116.118 116.514 C 111.905 113.551, 111.587 113.494, 97.416 113.156 L 83 112.812 83 133.906 M 97.645 192.584 C 81.183 196.569, 64.882 210.278, 56.632 227.075 C 49.699 241.189, 48.490 246.795, 48.557 264.500 C 48.612 278.826, 48.765 279.944, 51.977 289.382 C 56.175 301.717, 62.468 311.487, 71.734 320.056 C 95.738 342.252, 128.756 341.424, 152 318.044 C 164.378 305.594, 170.645 292.202, 173.118 272.920 C 175.220 256.524, 171.125 236.286, 162.865 222.264 C 161.014 219.122, 156.115 213.127, 151.978 208.943 C 137.167 193.962, 117.015 187.895, 97.645 192.584 M 213.500 193.327 C 207.401 195.345, 204.882 196.865, 200.250 201.325 L 196 205.416 196 200.208 L 196 195 190 195 L 184 195 184 231.500 L 184 268 189.924 268 L 195.848 268 196.174 242.750 C 196.535 214.754, 196.665 214.135, 203.422 208.203 C 209.785 202.616, 220.311 201.353, 228.038 205.250 C 231.462 206.976, 233.074 208.660, 234.969 212.485 C 237.359 217.308, 237.451 218.286, 237.839 242.735 L 238.240 268 244.120 268 L 250 268 249.994 240.250 C 249.991 223.773, 249.558 210.948, 248.928 208.679 C 247.533 203.655, 241.579 197.158, 236.167 194.756 C 230.633 192.300, 218.851 191.557, 213.500 193.327 M 286.286 193.392 C 272.069 198.032, 263.297 208.815, 260.826 224.690 C 258.764 237.936, 263.650 253.838, 272.140 261.507 C 274.406 263.555, 278.789 266.415, 281.880 267.865 C 286.839 270.190, 288.734 270.499, 298 270.491 C 307.298 270.483, 309.161 270.174, 314.270 267.787 C 320.195 265.020, 329.338 256.662, 330.522 252.930 C 331.201 250.793, 330.348 249.836, 324.862 246.583 C 322.283 245.054, 322.160 245.103, 319.456 248.759 C 313.452 256.876, 307.007 260.360, 298 260.360 C 290.195 260.360, 284.706 257.887, 280.068 252.279 C 276.823 248.355, 274 240.698, 274 235.818 L 274 233 303.144 233 L 332.289 233 331.716 225.750 C 330.582 211.385, 324.688 201.675, 313.701 196.070 C 307.941 193.132, 305.797 192.596, 298.739 192.329 C 293.625 192.135, 288.901 192.539, 286.286 193.392 M 288.500 204.146 C 283.180 206.113, 278.842 210.143, 276.402 215.383 C 275.092 218.197, 274.015 221.063, 274.010 221.750 C 274.002 222.713, 279.165 223, 296.519 223 L 319.038 223 318.412 220.250 C 315.929 209.334, 309.483 203.960, 298.175 203.379 C 294.504 203.190, 290.150 203.535, 288.500 204.146 M 103.108 207.037 C 85.220 210.732, 70.149 226.366, 64.975 246.596 C 62.561 256.035, 62.352 271.029, 64.515 279.540 C 71.354 306.444, 94.677 324.389, 117.332 320.176 C 150.877 313.937, 169.188 270.780, 152.983 236.151 C 144.810 218.685, 130.768 208.068, 113.995 206.671 C 110.423 206.373, 105.524 206.538, 103.108 207.037 M 205.065 284.723 C 203.984 287.065, 199.884 296.436, 184.924 330.750 L 183.071 335 186.366 335 C 189.518 335, 189.816 334.653, 193.258 327 L 196.856 319 206.807 319 L 216.758 319 220.061 327 C 223.282 334.800, 223.450 335, 226.789 335 C 229.141 335, 230.050 334.608, 229.692 333.750 C 225.470 323.633, 207.573 283.298, 207.051 282.723 C 206.663 282.295, 205.769 283.195, 205.065 284.723 M 292 295.952 L 292 308.905 289.437 306.530 C 284.798 302.229, 276.572 302.363, 271.649 306.817 C 268.405 309.754, 266.677 314.334, 266.677 320 C 266.677 328.822, 271.244 335.205, 278.536 336.573 C 282.650 337.345, 288.697 335.458, 290.291 332.906 C 291.833 330.436, 293 330.477, 293 333 C 293 334.467, 293.667 335, 295.500 335 L 298 335 298 309 L 298 283 295 283 L 292 283 292 295.952 M 306 285 C 304.744 287.346, 306.238 291, 308.453 291 C 311.509 291, 313 289.688, 313 287 C 313 282.819, 307.941 281.374, 306 285 M 321 296.500 L 321 303 318 303 C 315.667 303, 315 303.444, 315 305 C 315 306.556, 315.667 307, 318 307 L 321 307 321 321 L 321 335 324 335 L 327 335 327 321 L 327 307 330 307 C 332.333 307, 333 306.556, 333 305 C 333 303.444, 332.333 303, 330 303 L 327 303 327 296.500 L 327 290 324 290 L 321 290 321 296.500 M 202.710 303.762 C 200.670 308.581, 199 312.856, 199 313.262 C 199 313.668, 202.583 314, 206.962 314 L 214.924 314 211.462 305.911 C 209.557 301.461, 207.644 297.186, 207.210 296.411 C 206.671 295.447, 205.245 297.777, 202.710 303.762 M 231 314.599 C 231 327.270, 232.217 331.602, 236.579 334.460 C 240.547 337.060, 247.379 337.509, 252.604 335.514 C 259.338 332.942, 260.950 328.849, 260.978 314.250 L 261 303 258.084 303 L 255.167 303 254.834 314.975 C 254.536 325.671, 254.269 327.181, 252.336 329.111 C 250.810 330.635, 248.941 331.273, 246 331.273 C 243.059 331.273, 241.190 330.635, 239.664 329.111 C 237.731 327.181, 237.464 325.671, 237.166 314.975 L 236.833 303 233.916 303 L 231 303 231 314.599 M 307 319 L 307 335 309.500 335 L 312 335 312 319 L 312 303 309.500 303 L 307 303 307 319 M 274.455 311.455 C 272.402 313.507, 272 314.878, 272 319.820 C 272 324.228, 272.511 326.380, 274.012 328.288 C 276.546 331.510, 281.042 332.568, 284.714 330.808 C 290.122 328.216, 291.488 316.048, 286.922 311.146 C 284.033 308.046, 277.707 308.202, 274.455 311.455" stroke="none" fill="#2073fc" fill-rule="evenodd"/>
</svg>
