<?xml version="1.0" encoding="UTF-8" standalone="yes"?>
<svg width="256" height="256" viewBox="0 0 256 256" version="1.2" baseProfile="tiny-ps" xmlns="http://www.w3.org/2000/svg">
  <title>RH TEAM</title>
  <path d="M 13 80.914 L 13 151 28 151 L 43 151 43 95.500 L 43 40 59.250 40.024 C 77.214 40.051, 82.686 40.906, 88.230 44.550 C 98.012 50.980, 98.874 68.270, 89.834 76.702 C 85.654 80.601, 80.688 82, 71.032 82 L 62 82 62 93.553 C 62 114.350, 67.277 129.461, 78.436 140.621 C 88.816 151.001, 100.148 155.378, 116.500 155.322 C 144.587 155.226, 161.127 143.020, 168.236 117.144 C 170.206 109.973, 170.362 106.451, 170.755 60.250 L 171.174 11 157.587 11 L 144 11 143.992 55.250 C 143.985 100.422, 143.438 108.961, 140.065 116.587 C 136.622 124.369, 131.476 127.354, 119.308 128.626 C 111.762 129.414, 103.315 127.094, 98.572 122.929 C 95.453 120.191, 91 112.817, 91 110.392 C 91 109.854, 92.912 108.901, 95.250 108.274 C 101.169 106.685, 110.943 100.126, 115.282 94.832 C 117.285 92.387, 120.324 87.395, 122.035 83.740 C 131.330 63.876, 129.065 40.745, 116.495 27.168 C 110.145 20.309, 103.915 16.716, 93.325 13.806 C 86.148 11.833, 82.499 11.621, 49.250 11.242 L 13 10.829 13 80.914" stroke="none" fill="#0094f9" fill-rule="evenodd"/>
  <path d="M 210.692 11.641 C 210.312 12.022, 210 25.083, 210 40.667 L 210 69 190.554 69 L 171.108 69 170.804 82.750 C 170.637 90.313, 170.639 96.837, 170.809 97.250 C 170.979 97.662, 179.859 98, 190.542 98 L 209.967 98 210.233 124.250 L 210.500 150.500 225.500 150.500 L 240.500 150.500 240.500 81 L 240.500 11.500 225.942 11.224 C 217.936 11.073, 211.073 11.260, 210.692 11.641 M 14.183 205.750 C 14.470 232.717, 14.680 235.863, 16.424 239.377 C 18.824 244.213, 24.359 246.947, 31.810 246.978 L 37.121 247 36.810 243.250 C 36.521 239.751, 36.266 239.482, 33 239.230 C 23.119 238.468, 23 238.156, 23 212.953 L 23 193 30 193 L 37 193 37 189 L 37 185 30 185 L 23 185 23 180.500 L 23 176 18.433 176 L 13.866 176 14.183 205.750 M 56.718 186.033 C 47.614 188.318, 41.032 194.643, 38.425 203.610 C 35.831 212.533, 36.770 225.208, 40.577 232.677 C 46.148 243.606, 56.127 247.730, 74.500 246.697 C 87.038 245.992, 88 245.632, 88 241.633 L 88 238.480 73.750 238.490 C 60.124 238.500, 59.302 238.384, 54.989 235.848 C 50.249 233.061, 46.714 227.915, 45.660 222.269 L 45.058 219.038 67.279 218.769 L 89.500 218.500 89.786 209.934 C 90.045 202.181, 89.805 200.855, 87.257 195.978 C 83.519 188.823, 77.986 185.825, 67.716 185.389 C 63.747 185.221, 58.798 185.511, 56.718 186.033 M 108.181 186.052 C 100.835 187.366, 99 188.528, 99 191.869 C 99 193.407, 99.238 194.905, 99.529 195.195 C 99.820 195.486, 102.632 195.118, 105.779 194.378 C 112.815 192.722, 124.956 192.607, 130.098 194.148 C 135.695 195.825, 138.196 198.984, 138.786 205.125 L 139.285 210.315 129.647 209.638 C 113.547 208.506, 102.307 211.340, 97.589 217.720 C 95.440 220.625, 94.417 228.079, 95.427 233.465 C 97.598 245.035, 112.672 249.815, 132.228 245.135 C 139.754 243.334, 139.971 243.334, 140.545 245.143 C 140.943 246.396, 142.088 247, 144.067 247 L 147 247 147 223.712 C 147 201.550, 146.891 200.208, 144.750 195.962 C 141.422 189.363, 134.285 186.021, 122.392 185.495 C 117.501 185.279, 111.106 185.529, 108.181 186.052 M 156 216 L 156 247 159.982 247 L 163.964 247 164.232 223.250 L 164.500 199.500 170 196.524 C 174.525 194.075, 176.692 193.544, 182.225 193.524 C 188.255 193.502, 189.236 193.786, 191.725 196.271 L 194.500 199.042 194.815 223.021 L 195.131 247 199.065 247 L 203 247 203 223.655 C 203 197.274, 202.533 198.863, 211.433 194.927 C 218.156 191.953, 226.019 192.565, 229.815 196.359 L 232.500 199.042 232.801 223.021 L 233.101 247 237.641 247 L 242.182 247 241.841 222.750 L 241.500 198.500 238.784 193.880 C 235.073 187.568, 230.682 185.516, 220.927 185.536 C 214.423 185.549, 212.423 186.010, 206.755 188.800 L 200.156 192.049 197.431 189.523 C 191.768 184.275, 181.133 183.847, 169.831 188.412 L 164 190.768 164 187.884 C 164 185.186, 163.742 185, 160 185 L 156 185 156 216 M 55.450 194.354 C 52.651 195.622, 47.032 201.239, 46.976 202.827 C 46.963 203.197, 46.560 205.188, 46.081 207.250 L 45.211 211 63.733 211 L 82.256 211 81.583 206.792 C 80.015 196.988, 76.109 193.659, 65.699 193.254 C 61.148 193.077, 57.378 193.482, 55.450 194.354 M 112.500 217.929 C 107.619 219.107, 105.353 220.734, 103.981 224.045 C 102.045 228.719, 103.664 233.863, 108 236.816 C 111.242 239.025, 112.200 239.164, 121 238.703 C 126.225 238.429, 132.300 237.553, 134.500 236.755 L 138.500 235.304 138.787 226.796 L 139.074 218.287 133.787 217.652 C 127.091 216.848, 116.403 216.987, 112.500 217.929" stroke="none" fill="#000306" fill-rule="evenodd"/>
</svg>
