<?xml version="1.0" encoding="UTF-8" standalone="yes"?>
<svg version="1.2" width="126.21333" height="126.21333" viewBox="0 0 126.21333 126.21333" baseProfile="tiny-ps" xmlns="http://www.w3.org/2000/svg">
  <title>bimi-svg-tiny-12-ps</title>
  <defs id="defs96"/>
  <g id="g100" transform="matrix(1.3333333,0,0,-1.3333333,0,126.21333)">
    <g id="g102" transform="scale(0.1)">
      <path d="M 946.613,473.309 C 946.613,211.906 734.711,0 473.309,0 211.906,0 0,211.906 0,473.309 c 0,261.398 211.906,473.308 473.309,473.308 261.402,0 473.304,-211.91 473.304,-473.308" id="path104" fill="#43b1cf" fill-opacity="1" fill-rule="nonzero" stroke="none"/>
      <path d="M 635.398,629 462.508,358.234 c -6.082,-9.589 -17.469,-14.39 -28.59,-12.062 -18.613,3.887 -27.598,25.187 -17.414,41.242 l 172.891,270.762 c 6.082,9.59 17.468,14.402 28.585,12.078 18.614,-3.906 27.598,-25.191 17.418,-41.254" id="path106" fill="#ffffff" fill-opacity="1" fill-rule="nonzero" stroke="none"/>
      <path d="m 771.426,520.836 c -12.649,0 -23.899,-8.027 -28.024,-19.988 l -54.203,-157.457 -19.207,-59.918 -16.863,54.683 -57.102,161.532 c -0.898,2.519 -2.289,4.75 -3.73,6.906 L 551.242,441.859 609.5,300.348 640.324,228.211 627.531,196.793 c -6.593,-16.672 -14.054,-27.82 -22.402,-33.453 -8.332,-5.61 -17.742,-8.434 -28.215,-8.434 -9.703,0 -18.711,1.555 -27.047,4.645 l -0.25,0.097 c -13.441,5.036 -28.363,-2.25 -32.66,-15.957 -3.617,-11.546 1.996,-24.078 13.125,-28.816 3.891,-1.652 7.965,-3.148 12.227,-4.484 11.816,-3.676 24.714,-5.512 38.675,-5.512 17.067,0 31.996,2.906 44.801,8.715 12.801,5.828 24.141,15.328 34.043,28.511 9.883,13.184 19.09,31.036 27.621,53.532 l 111.563,284.761 c 7.617,19.438 -6.707,40.438 -27.586,40.438" id="path108" fill="#ffffff" fill-opacity="1" fill-rule="nonzero" stroke="none"/>
      <path d="m 427.484,457.809 33.383,53.257 -58.523,186.395 c -5.539,17.668 -21.926,29.691 -40.442,29.691 -18.531,0 -34.902,-12.023 -40.437,-29.691 L 258.641,497.352 198.832,704.566 c -3.863,13.379 -16.098,22.586 -30.023,22.586 -21.348,0 -36.418,-20.91 -29.645,-41.164 l 72.695,-217.64 c 6.403,-19.157 24.336,-32.082 44.528,-32.082 20.41,0 38.484,13.183 44.711,32.605 l 58.757,183.238 62.493,-183.984 c 1.269,-3.73 3.066,-7.129 5.136,-10.316" id="path110" fill="#ffffff" fill-opacity="1" fill-rule="nonzero" stroke="none"/>
    </g>
  </g>
</svg>
